<?xml version="1.0" standalone="no"?><!DOCTYPE svg PUBLIC "-//W3C//DTD SVG 1.1//EN" "http://www.w3.org/Graphics/SVG/1.1/DTD/svg11.dtd"><svg t="1558061370583" class="icon" style="" viewBox="0 0 1024 1024" version="1.1" xmlns="http://www.w3.org/2000/svg" xmlns:xlink="http://www.w3.org/1999/xlink" width="200" height="200"><defs><style type="text/css"></style></defs><path d="M859.6 64H164.4C109.4 64 64 109.4 64 164.4v695.2C64 914.6 109.4 960 164.4 960h695.2c55 0 100.4-45.4 100.4-100.4V164.4c0-55-45.4-100.4-100.4-100.4z m-90.8 568.6c0 8.4-7.2 12-15.6 15.6-33.4 14.4-69.2 27.4-107.6 27.4-53.8 0-78.8-33.4-143.4-33.4-46.6 0-95.6 16.8-135 34.6-2.4 1.2-4.8 1.2-7.2 2.4V770c0 3.6 0 7.2-1.2 9.6v2.4c-4.8 16.8-20.4 28.6-38.2 28.6-22.6 0-40.6-18-40.6-40.6V332.8c-15.6-12-26.2-31-26.2-52.6 0-37 29.8-67 67-67 37 0 67 29.8 67 67 0 21.6-9.6 40.6-26.2 52.6v37c3.6-1.2 7.2-2.4 10.8-4.8 37-15.6 81.2-28.6 123-28.6 45.4 0 81.2 12 121.8 27.4 8.4 3.6 16.8 4.8 26.2 4.8 45.4 0 95.6-32.2 107.6-32.2 9.6 0 18 7.2 18 15.6v280.6z" fill="#1296db"></path></svg>