<?xml version="1.0" standalone="no"?><!DOCTYPE svg PUBLIC "-//W3C//DTD SVG 1.1//EN" "http://www.w3.org/Graphics/SVG/1.1/DTD/svg11.dtd"><svg t="1555050935101" class="icon" style="" viewBox="0 0 1024 1024" version="1.1" xmlns="http://www.w3.org/2000/svg" p-id="2084" xmlns:xlink="http://www.w3.org/1999/xlink" width="200" height="200"><defs><style type="text/css"></style></defs><path d="M641.877333 529.92l0.64 0.426667c5.12 0 9.6-4.522667 8.96-9.642667a9.386667 9.386667 0 0 0-9.386666-9.386667h-0.256a9.472 9.472 0 0 0-9.642667 9.173334v0.426666c0 5.12 4.522667 9.557333 9.642667 8.96z m-248.064-11.52h-0.725333a9.301333 9.301333 0 0 0-9.258667 9.514667v0.298666c0.085333 5.205333 4.437333 9.386667 9.685334 9.301334h0.128a9.813333 9.813333 0 0 0 9.642666-9.813334 9.472 9.472 0 0 0-9.514666-9.386666z m44.117334 150.4l76.373333 5.802667 71.04-15.018667c5.12-1.024 10.24 0 14.506667 2.986667l52.394666 35.84 53.76 5.034666c5.76-12.8 10.24-26.88 13.397334-40.96h-2.56l-145.92-19.797333a18.901333 18.901333 0 0 1-15.36-12.16l-26.197334-75.52c-3.2-1.962667-19.84-0.682667-27.52 3.157333l-26.88 72.96a17.365333 17.365333 0 0 1-13.44 12.202667l-142.72 33.28-2.56 0.64c5.12 17.322667 12.16 33.962667 20.48 50.602667l43.52-12.16-1.408-1.621334 44.970667-40.277333a18.346667 18.346667 0 0 1 14.08-4.821333z" fill="#707070" p-id="2085"></path><path d="M720.768 741.12l-3.328 1.450667-73.813333-7.253334a33.322667 33.322667 0 0 1-8.618667-3.2l-49.28-33.962666-65.28 13.44c-1.92 0-3.2 0.554667-5.12 0l-71.04-5.845334-42.24 37.802667a17.194667 17.194667 0 0 1-7.04 3.84l-76.16 21.76a25.941333 25.941333 0 0 1-9.6 0l44.8 50.517333 149.12-21.12 12.8-26.282666c2.56-4.821333 6.954667-8.533333 12.16-10.24a19.157333 19.157333 0 0 1 15.36 2.56l56.32 37.802666 125.44-28.8 26.88-42.88-22.442667 8.96c-3.2 0.597333-5.76 1.28-8.96 1.28z m-190.933333 84.394667l0.085333 0.512a19.114667 19.114667 0 0 1-14.336 10.24l-47.786667 6.741333c15.061333 4.48 30.72 6.826667 47.018667 6.826667a164.693333 164.693333 0 0 0 63.018667-12.8l-40.32-26.88-7.68 15.36z m-269.44-322.773334h0.085333l17.92 104.106667 39.68 30.037333 124.373333-28.8 24.96-70.272a20.48 20.48 0 0 1 6.826667-8.96c2.133333-1.450667 21.461333-14.933333 45.44-14.933333 28.16 0 40.448 18.176 41.813333 20.352l25.045334 71.509333 127.146666 17.408 39.466667-27.306666 26.24-91.136c-169.557333-38.4-349.44-38.997333-518.997333-2.005334z m128 78.506667l0.085333-0.426667h-11.52c-18.090667 0-29.781333-0.768-40.106667 4.693334 0.426667-0.725333 4.992-10.666667 21.162667-14.805334a47.957333 47.957333 0 0 1-3.157333-17.237333c-1.109333-29.269333 17.066667-53.333333 35.712-53.589333 18.688 0 31.658667 23.68 32 53.12 0.256 29.525333-15.36 27.605333-34.133334 28.245333z m255.573333-89.173333v0.725333c18.773333-0.64 35.84 22.4 38.058667 51.882667a37.973333 37.973333 0 0 1-2.133334 18.261333c17.194667-2.005333 21.333333 9.813333 21.333334 10.410667-12.544-6.4-26.368 1.28-51.370667 2.005333-18.858667 0.64-34.389333 0.64-35.541333-28.842667-1.066667-29.44 11.093333-53.76 29.696-54.442666z" fill="#707070" p-id="2086"></path><path d="M512 0C229.248 0 0 229.248 0 512s229.248 512 512 512 512-229.248 512-512S794.752 0 512 0z m345.514667 442.88c-2.56 24.32-8.32 45.397333-17.92 62.037333a18.858667 18.858667 0 0 1-21.077334 8.96l-1.92-0.64h-0.725333l-1.92-0.682666-27.52 97.877333a22.869333 22.869333 0 0 1-7.68 11.52l-19.882667 14.08v5.76c-2.56 16.64-6.4 33.28-10.88 49.28l37.802667-14.08c7.68-3.2 15.957333-0.64 21.76 5.76a18.858667 18.858667 0 0 1 1.28 22.186667l-60.16 97.194666c-2.56 4.266667-6.698667 7.253333-11.52 8.533334l-74.24 17.237333c-42.24 37.333333-94.08 59.733333-148.48 59.733333L512 885.162667h-0.426667c-42.154667 0-81.194667-13.226667-115.114666-34.986667l-53.12 7.424h-2.56a18.346667 18.346667 0 0 1-14.378667-6.4l-107.52-120.32a19.072 19.072 0 0 1-1.28-23.637333 19.712 19.712 0 0 1 23.04-6.4l47.36 19.882666a289.578667 289.578667 0 0 1-21.632-68.48 32.085333 32.085333 0 0 1 0-6.4l-21.76-16.64a16.298667 16.298667 0 0 1-7.253333-12.16l-18.346667-108.16-14.506667 3.84c-1.706667 0.64-3.157333 0.64-5.12 0.64a18.901333 18.901333 0 0 1-15.957333-9.6c-9.642667-16.64-15.786667-37.12-17.92-62.08-2.645333-26.24-0.938667-48 5.461333-64a17.493333 17.493333 0 0 1 10.24-10.88c16.512-7.04 33.28-12.8 50.432-18.56 24.96-118.4 142.634667-206.805333 279.594667-206.805333s254.72 88.32 279.68 207.36c16.64 5.76 33.28 11.52 49.92 18.56a18.346667 18.346667 0 0 1 10.88 10.922667c6.4 16.554667 8.32 38.314667 5.76 64.554666z" fill="#707070" p-id="2087"></path><path d="M774.954667 387.925333l3.2-3.157333h-0.597334a19.712 19.712 0 0 1-11.52-3.669333 837.845333 837.845333 0 0 0-152.32-32.213334 17.962667 17.962667 0 0 1-16.853333-18.944c0-0.512 0-1.024 0.128-1.536a19.242667 19.242667 0 0 1 5.376-10.965333 20.522667 20.522667 0 0 1-7.253333 1.450667h-35.157334v28.8c8.96 1.877333 15.36 9.557333 15.36 18.517333l-1.408-1.066667v47.189334c0 10.410667-8.96 18.944-19.2 18.944H477.44c-10.24 0-18.773333-8.96-18.773333-19.2V364.8c0-9.130667 6.4-16.64 14.933333-18.56v-28.16h-35.157333a18.773333 18.773333 0 0 1-18.517334-19.029333V236.586667c0-10.453333 8.96-18.901333 19.2-18.901334h156.074667c10.453333 0 18.944 8.96 18.944 19.2v62.72c0 5.333333-2.133333 10.069333-5.461333 13.525334a19.754667 19.754667 0 0 1 9.514666-1.408c44.8 5.76 88.874667 14.08 131.84 26.24-30.165333-90.88-126.165333-156.16-236.8-156.16-110.805333 0-206.805333 65.28-236.8 156.8 38.954667-10.88 79.36-18.56 119.594667-24.32 10.88-1.28 19.84 6.4 21.12 16.64 1.28 10.24-6.4 19.84-16.64 21.12-48.64 6.4-96 17.237333-142.08 31.317333a11.093333 11.093333 0 0 1-6.4 1.92c-16 5.12-31.36 10.922667-47.36 17.322667-1.92 8.96-2.56 21.76-0.64 40.32 1.28 13.482667 3.84 24.32 7.68 34.56a1240.96 1240.96 0 0 1 600.96 0c3.2-9.557333 5.802667-21.077333 7.04-33.877334 1.28-16 1.28-29.44-1.28-39.68-14.378667-5.546667-28.885333-10.922667-43.52-15.957333z" fill="#707070" p-id="2088"></path><path d="M602.453333 317.44a19.285333 19.285333 0 0 0 6.229334-4.266667 16.597333 16.597333 0 0 0-6.229334 4.266667z m-144.853333-37.248h6.4a18.773333 18.773333 0 0 1 18.773333-18.218667h10.026667c10.496 0 19.029333 8.533333 19.029333 18.944V364.8c0 9.088-6.4 16.64-15.36 18.56v9.813333h39.68v-9.813333a18.816 18.816 0 0 1-15.146666-18.56V280.96c0-10.496 8.96-19.029333 19.2-19.029333h10.24c10.24 0 18.645333 8.106667 19.2 18.218666h5.717333v-24.746666h-117.76v24.746666z" fill="#707070" p-id="2089"></path></svg>